<svg width="101" height="11" viewBox="0 0 101 11" fill="none" xmlns="http://www.w3.org/2000/svg">
<path fill-rule="evenodd" clip-rule="evenodd" d="M11.5438 0.275391H8.00206L4.10156 10.6954H7.64331L11.5438 0.275391Z" fill="#394854"/>
<path fill-rule="evenodd" clip-rule="evenodd" d="M3.90045 0.275391H7.44218L3.54169 10.6954H0L3.90045 0.275391Z" fill="#394854"/>
<path fill-rule="evenodd" clip-rule="evenodd" d="M11.7525 10.6974H8.22656L12.1247 0.282715H15.6507L13.0846 7.1451H14.6908L15.5135 9.32492H12.2618L11.7525 10.6974Z" fill="#394854"/>
<path fill-rule="evenodd" clip-rule="evenodd" d="M15.6589 0.275391H12.1172L16.0177 10.6954H19.5594L15.6589 0.275391Z" fill="#394854"/>
<path d="M43.8594 10.6972V0.282569H47.4833V3.73395L50.7546 0.282569H55.0053L50.9505 4.11743L55.5342 10.6972H51.1659L48.3844 6.51927L47.4833 7.38716V10.6972H43.8594ZM70.0102 10.6972V3.00734H66.7389V0.282569H76.9446V3.00734H73.6733V10.6972H70.0102ZM81.4696 10.6972V3.00734H78.1787V0.282569H88.404V3.00734H85.1131V10.6972H81.4696ZM92.7918 5.48991C92.7918 6.4789 92.9681 7.2055 93.3207 7.66972C93.6929 8.13395 94.261 8.37615 95.025 8.37615C95.7889 8.37615 96.3374 8.13395 96.7096 7.66972C97.0622 7.22569 97.2385 6.49908 97.2385 5.48991C97.2385 4.50092 97.0622 3.77431 96.7096 3.31009C96.3374 2.84587 95.7889 2.62385 95.025 2.62385C94.261 2.62385 93.6929 2.86606 93.3207 3.31009C92.9681 3.77431 92.7918 4.50092 92.7918 5.48991ZM89.0896 5.48991C89.0896 3.7945 89.6185 2.46239 90.6763 1.47339C91.7341 0.484404 93.1836 0 95.025 0C96.8467 0 98.2767 0.484404 99.3345 1.47339C100.392 2.46239 100.921 3.7945 100.921 5.48991C100.921 7.18532 100.392 8.53761 99.3345 9.50642C98.2767 10.4954 96.8467 11 95.025 11C93.1836 11 91.7341 10.4954 90.6763 9.50642C89.6185 8.53761 89.0896 7.18532 89.0896 5.48991Z" fill="#394854"/>
<path fill-rule="evenodd" clip-rule="evenodd" d="M27.45 0.275391H23.9083L20.0078 10.6954H23.5495L27.45 0.275391Z" fill="#394854"/>
<path fill-rule="evenodd" clip-rule="evenodd" d="M27.4558 0.275391H23.9141L27.8146 10.6954H31.3562L27.4558 0.275391ZM35.4912 10.697H31.9653L35.8634 0.282334H39.409L43.3071 10.697H39.7616L39.2523 9.32454H36.0201L35.4912 10.697ZM38.4295 7.14472L37.6264 5.00527L36.8429 7.14472H38.4295ZM59.9967 10.697H56.4511L60.3493 0.282334H63.8948L67.7929 10.697H64.267L63.7577 9.32454H60.506L59.9967 10.697ZM62.935 7.14472L62.1318 5.00527L61.3287 7.14472H62.935Z" fill="#394854"/>
</svg>
