<svg width="91" height="30" viewBox="0 0 91 30" fill="none" xmlns="http://www.w3.org/2000/svg">
<mask id="mask0_786_12817" style="mask-type:luminance" maskUnits="userSpaceOnUse" x="0" y="0" width="92" height="30">
<path d="M0 0H91.003V30H0V0Z" fill="white"/>
</mask>
<g mask="url(#mask0_786_12817)">
<path d="M0 19.04C0.793367 20.9023 2.11673 22.4902 3.80547 23.6062C5.4942 24.7223 7.4738 25.3172 9.498 25.317C8.70496 23.4546 7.38168 21.8664 5.69286 20.7503C4.00405 19.6342 2.02429 19.0395 0 19.04ZM9.5 25.32C10.9868 25.3204 12.4422 24.8925 13.6923 24.0876C14.9423 23.2827 15.9341 22.1347 16.549 20.781C15.0621 20.781 13.6067 21.2091 12.3567 22.0142C11.1067 22.8193 10.1149 23.9663 9.5 25.32Z" fill="#394854"/>
<path fill-rule="evenodd" clip-rule="evenodd" d="M9.49438 20.1577C10.5234 20.1779 11.5462 19.9927 12.5028 19.6128C13.4594 19.2329 14.3306 18.6661 15.0655 17.9455C15.8004 17.2248 16.3841 16.3649 16.7826 15.4159C17.1811 14.4669 17.3863 13.448 17.3862 12.4187C17.3862 11.3894 17.1808 10.3705 16.7822 9.42161C16.3836 8.47268 15.7997 7.61278 15.0648 6.89223C14.3298 6.17169 13.4585 5.60497 12.5018 5.22523C11.5452 4.8455 10.5224 4.66038 9.49338 4.68071C7.46739 4.72073 5.53789 5.55369 4.11928 7.00069C2.70068 8.44769 1.90612 10.3933 1.90625 12.4197C1.90638 14.4461 2.70119 16.3916 4.11998 17.8384C5.53878 19.2852 7.46838 20.1179 9.49438 20.1577ZM9.49438 16.2887C10.0026 16.2887 10.5058 16.1886 10.9754 15.9941C11.4449 15.7996 11.8715 15.5146 12.2309 15.1552C12.5902 14.7958 12.8753 14.3692 13.0698 13.8997C13.2643 13.4302 13.3644 12.9269 13.3644 12.4187C13.3644 11.9105 13.2643 11.4073 13.0698 10.9377C12.8753 10.4682 12.5902 10.0416 12.2309 9.68221C11.8715 9.32284 11.4449 9.03778 10.9754 8.8433C10.5058 8.64881 10.0026 8.54871 9.49438 8.54871C8.46799 8.54871 7.48364 8.95644 6.75787 9.68221C6.03211 10.408 5.62438 11.3923 5.62438 12.4187C5.62438 13.4451 6.03211 14.4294 6.75787 15.1552C7.48364 15.881 8.46799 16.2887 9.49438 16.2887Z" fill="#394854"/>
<path d="M9.49891 16.2898C10.5253 16.2898 11.5096 15.8821 12.2354 15.1563C12.9612 14.4305 13.3689 13.4462 13.3689 12.4198C13.3689 11.3934 12.9612 10.4091 12.2354 9.6833C11.5096 8.95754 10.5253 8.5498 9.49891 8.5498C8.47252 8.5498 7.48817 8.95754 6.7624 9.6833C6.03664 10.4091 5.62891 11.3934 5.62891 12.4198C5.62891 13.4462 6.03664 14.4305 6.7624 15.1563C7.48817 15.8821 8.47252 16.2898 9.49891 16.2898ZM59.2959 12.4208H62.5339V24.9698H59.2959V20.0828H53.6439V24.9698H50.4069V12.4208H53.6439V17.0458H59.2959V12.4208ZM64.0579 15.5338H68.0879V24.9688H71.3259V15.5338H75.3079V12.4198H64.0579V15.5328V15.5338ZM91.0049 22.2398V24.9068C90.4529 25.1828 89.7629 25.3208 88.9579 25.3208C87.2769 25.3208 86.4299 24.5888 86.0909 23.4108L86.0369 23.4898C85.0569 24.7188 83.7029 25.3208 81.9469 25.3208C80.2639 25.3208 78.8329 24.6938 77.6289 23.4138C76.4489 22.1338 75.8479 20.5528 75.8479 18.6948C75.8479 16.8398 76.4499 15.2828 77.6289 14.0028C78.8329 12.7238 80.2639 12.0698 81.9459 12.0698C83.6249 12.0698 84.9359 12.6228 85.9039 13.7468V12.4218H89.1419V21.2978C89.1419 22.0568 89.4869 22.4468 90.1769 22.4468C90.4999 22.4468 90.7749 22.3768 91.0049 22.2398ZM86.0369 18.6948C86.0369 17.6668 85.7109 16.8138 85.0329 16.1608C84.3809 15.4838 83.5529 15.1568 82.5479 15.1568C81.5439 15.1568 80.7169 15.4828 80.0639 16.1608C79.4109 16.8138 79.0849 17.6668 79.0849 18.6948C79.0849 19.7248 79.4109 20.5778 80.0639 21.2548C80.7169 21.9078 81.5439 22.2338 82.5479 22.2338C83.5519 22.2338 84.3809 21.9078 85.0329 21.2548C85.7109 20.5778 86.0369 19.7248 86.0369 18.6948ZM23.7369 12.4208L23.6399 17.1358C23.6179 19.0448 23.5479 19.9878 23.2719 21.0668C23.0189 22.1018 22.5359 22.3948 21.7789 22.3948C21.5249 22.3948 21.2959 22.3708 21.1109 22.3018V24.9688C21.3639 25.1068 21.7789 25.1748 22.3309 25.1748C24.6059 25.1068 25.7099 24.0328 26.2619 22.1018C26.6519 20.7218 26.7219 19.6638 26.7919 18.0778L26.8639 15.5328H30.8839V24.9678H34.1209V12.4208H23.7369ZM39.3279 19.5418C39.6769 21.6838 41.3749 22.3848 43.0979 22.3848C44.2379 22.3848 45.4349 21.9388 46.1709 21.2718L48.1679 23.2798C46.9749 24.5998 45.3149 25.3208 43.0469 25.3208C39.8709 25.3208 36.0389 23.4458 36.0389 18.6948C36.0389 13.9448 39.7289 12.0698 42.8619 12.0698C46.8259 12.0698 48.4659 13.9318 48.4659 16.0198C48.4659 19.4328 44.1289 21.0098 39.3279 19.5418ZM44.9509 16.3898C44.9509 15.4158 43.9889 14.9808 42.9099 14.9808C41.2619 14.9808 39.8339 15.6768 39.3999 17.4678C42.7579 18.4378 44.9509 17.7138 44.9509 16.3898Z" fill="#394854"/>
</g>
</svg>
